<?xml version="1.0" encoding="UTF-8"?>
<svg version="1.1" xmlns="http://www.w3.org/2000/svg" width="1024" height="1024">
<path d="M0 0 C337.92 0 675.84 0 1024 0 C1024 337.92 1024 675.84 1024 1024 C686.08 1024 348.16 1024 0 1024 C0 686.08 0 348.16 0 0 Z " fill="#0A0B0B" transform="translate(0,0)"/>
<path d="M0 0 C1.58879471 -0.01469078 1.58879471 -0.01469078 3.20968628 -0.02967834 C26.00775978 -0.19707074 48.26219626 -0.22225792 70.703125 4.23828125 C72.39695312 4.56771729 72.39695312 4.56771729 74.125 4.90380859 C114.5976342 12.99032332 153.05235526 30.2533912 183.15234375 58.86328125 C185.65744128 61.25837032 185.65744128 61.25837032 188.33203125 63.32421875 C190.47975908 65.05796939 192.18079421 66.75975733 193.953125 68.86328125 C197.43507965 72.94846927 201.04469918 76.90162814 204.6875 80.84375 C209.703125 86.80223474 209.703125 86.80223474 209.703125 90.23828125 C208.41015625 91.54296875 208.41015625 91.54296875 206.515625 93.11328125 C191.69528059 105.73130175 177.48369731 119.30519704 163.81640625 133.15625 C161.87986298 135.06415677 159.89525515 136.84927405 157.828125 138.61328125 C152.13110762 143.47801831 146.95683926 148.90576127 141.703125 154.23828125 C137.70322346 152.66424592 135.51465365 150.05135391 132.703125 146.86328125 C131.72060854 145.7717617 130.73617227 144.68196771 129.75 143.59375 C129.24533203 143.03606934 128.74066406 142.47838867 128.22070312 141.90380859 C100.28141604 111.2407107 63.22412356 95.04247797 22.01342773 93.11230469 C1.82544661 92.53061398 -17.15844691 94.7339317 -36.296875 101.23828125 C-36.93866699 101.44791504 -37.58045898 101.65754883 -38.24169922 101.87353516 C-55.13544741 107.43626745 -71.71041365 115.68771166 -85.296875 127.23828125 C-86.56144531 128.31335938 -86.56144531 128.31335938 -87.8515625 129.41015625 C-90.38533502 131.63608725 -92.8477544 133.91967805 -95.296875 136.23828125 C-96.18117188 137.058125 -97.06546875 137.87796875 -97.9765625 138.72265625 C-123.71351974 163.36597508 -139.29987813 198.27149674 -144.03051758 233.26904297 C-144.28284871 235.13458187 -144.57010464 236.99529965 -144.859375 238.85546875 C-149.39626327 276.09708719 -141.48551058 316.52930635 -123.296875 349.23828125 C-122.95430664 349.86927734 -122.61173828 350.50027344 -122.25878906 351.15039062 C-116.74002079 361.24155871 -110.0937933 369.80703739 -102.296875 378.23828125 C-101.48476563 379.13289063 -100.67265625 380.0275 -99.8359375 380.94921875 C-76.90024665 405.10408253 -44.72650528 418.96147718 -12.296875 424.23828125 C-10.4096875 424.54572266 -10.4096875 424.54572266 -8.484375 424.859375 C13.63051634 428.04058457 35.9837384 426.17450548 57.703125 421.23828125 C64.78533189 431.94731661 71.22826384 442.87629104 77.203125 454.23828125 C84.99295829 469.01526873 92.98680886 483.59916089 104.05859375 496.20703125 C105.703125 498.23828125 105.703125 498.23828125 106.703125 501.23828125 C75.92971635 513.93841815 45.13908483 519.69196736 11.890625 519.61328125 C11.01148438 519.61273743 10.13234375 519.6121936 9.2265625 519.6116333 C-31.89840443 519.49589526 -70.30122486 510.10287429 -107.296875 492.23828125 C-108.0919043 491.85446289 -108.88693359 491.47064453 -109.70605469 491.07519531 C-132.06999881 480.12570616 -151.67883375 465.34352051 -169.859375 448.42578125 C-170.82363403 447.52883545 -170.82363403 447.52883545 -171.80737305 446.61376953 C-176.26398348 442.39184014 -180.33653309 437.92635576 -184.296875 433.23828125 C-184.78534912 432.66134521 -185.27382324 432.08440918 -185.77709961 431.48999023 C-219.35664656 391.34724768 -239.26184341 342.28387848 -244.296875 290.23828125 C-244.3911377 289.28735596 -244.48540039 288.33643066 -244.58251953 287.35668945 C-246.74014329 262.98403254 -246.74419359 237.31583853 -242.296875 213.23828125 C-242.10351562 212.15788574 -241.91015625 211.07749023 -241.7109375 209.96435547 C-233.38263598 164.5763974 -214.52964362 122.2769983 -184.296875 87.23828125 C-183.32814453 86.10326172 -183.32814453 86.10326172 -182.33984375 84.9453125 C-171.71140125 72.81303684 -160.23471322 60.90917611 -147.296875 51.23828125 C-146.77593262 50.84624512 -146.25499023 50.45420898 -145.71826172 50.05029297 C-136.94411023 43.48566258 -127.82686281 37.64066121 -118.296875 32.23828125 C-117.63848633 31.86316406 -116.98009766 31.48804688 -116.30175781 31.1015625 C-105.03849353 24.74597957 -93.42521636 19.70661754 -81.296875 15.23828125 C-80.53761719 14.95855469 -79.77835938 14.67882812 -78.99609375 14.390625 C-53.75225149 5.23917956 -26.86416784 0.20550882 0 0 Z " fill="#FCFCFC" transform="translate(522.296875,241.76171875)"/>
<path d="M0 0 C1.01297653 0.00506058 1.01297653 0.00506058 2.04641724 0.01022339 C32.80436248 0.23206494 57.25324763 12.49156899 78.92211914 34.1730957 C101.44425531 57.58719766 112.4828606 92.24281676 112.15454102 124.20898438 C111.2438164 158.44167077 97.91613137 192.00828478 73.75 216.4375 C73.15832031 217.08976563 72.56664062 217.74203125 71.95703125 218.4140625 C55.42141973 236.29702015 26.2724372 246.35092153 2.43847656 247.55419922 C-25.56892589 248.61676771 -49.38482341 239.95540289 -71.25 222.4375 C-71.92933594 221.90125 -72.60867188 221.365 -73.30859375 220.8125 C-77.81095833 217.122366 -81.57499295 212.94110989 -85.25 208.4375 C-85.93964844 207.60863281 -86.62929688 206.77976562 -87.33984375 205.92578125 C-97.52104694 193.09639164 -105.03086483 178.25524632 -109.25 162.4375 C-109.44319824 161.78491211 -109.63639648 161.13232422 -109.83544922 160.45996094 C-116.36134282 137.96826886 -116.6300616 107.73879881 -109.25 85.4375 C-108.99798828 84.64939941 -108.74597656 83.86129883 -108.48632812 83.04931641 C-99.97054354 56.92505399 -84.2955459 31.87948946 -60.25 17.4375 C-59.21875 16.78523438 -58.1875 16.13296875 -57.125 15.4609375 C-50.91680845 11.63678482 -44.6181731 8.58200297 -37.75 6.125 C-36.79178345 5.77973267 -36.79178345 5.77973267 -35.81420898 5.42749023 C-24.01479973 1.44074894 -12.42516351 -0.09852006 0 0 Z " fill="#F9F9F9" transform="translate(523.25,366.5625)"/>
<path d="M0 0 C5.60895699 3.41085222 10.69969922 7.22696016 15.625 11.5625 C16.40101563 12.243125 17.17703125 12.92375 17.9765625 13.625 C28.42919558 23.43072745 36.24283338 35.71762896 44.42333984 47.40039062 C59.45465066 68.8639973 75.60167284 83.1837241 98.625 95.5625 C95.38131463 99.26934917 91.70930886 101.25251816 87.328125 103.33203125 C85.88327193 104.03557668 84.43861507 104.73952519 82.99414062 105.44384766 C82.26332275 105.79707092 81.53250488 106.15029419 80.77954102 106.51422119 C77.51666309 108.10175457 74.2825567 109.74467273 71.046875 111.38671875 C57.73918475 118.10339701 44.39200577 124.7133493 30.875 131 C29.69776367 131.54938232 28.52052734 132.09876465 27.30761719 132.66479492 C17.34575813 137.26081429 17.34575813 137.26081429 14.625 137.5625 C12.73730469 136.70141602 12.73730469 136.70141602 10.796875 135.31640625 C10.08345947 134.81310791 9.37004395 134.30980957 8.63500977 133.79125977 C7.88920654 133.24139404 7.14340332 132.69152832 6.375 132.125 C5.22439087 131.28956665 5.22439087 131.28956665 4.05053711 130.43725586 C-16.32950499 115.41363229 -28.71226567 92.65000279 -40.4375 70.70922852 C-51.71480645 49.00314713 -51.71480645 49.00314713 -66.375 29.5625 C-66.95894531 28.87671875 -67.54289063 28.1909375 -68.14453125 27.484375 C-84.18671608 9.78731216 -109.88723957 6.11716337 -132.375 3.5625 C-128.75871844 1.36338681 -125.38850899 1.07566078 -121.21484375 0.66796875 C-119.7760483 0.51919444 -118.33733023 0.36967024 -116.89868164 0.21948242 C-115.77479538 0.10544571 -115.77479538 0.10544571 -114.62820435 -0.01089478 C-98.41452492 -1.68501845 -83.3786644 -4.2001966 -68.1809082 -10.28662109 C-44.37271281 -19.72190672 -21.50502279 -12.02962961 0 0 Z " fill="#F9F9F9" transform="translate(654.375,619.4375)"/>
<path d="M0 0 C7.42953319 4.40085493 13.08988764 11.02504577 15.9375 19.19921875 C18.0721772 28.97870868 17.50872411 39.25580829 12.5625 48.0625 C7.14801995 56.04113128 0.9123404 60.62713581 -8.4375 63.0625 C-17.47832956 64.52965217 -24.34131672 61.34752449 -31.6875 56.3125 C-37.84084492 51.44620929 -40.63792935 45.60806815 -42.4375 38.0625 C-43.4830364 26.13609061 -42.50182665 16.74491753 -34.8125 7.25 C-25.53159121 -2.35446341 -12.599288 -5.571642 0 0 Z " fill="#0C0B0C" transform="translate(592.4375,440.9375)"/>
<path d="M0 0 C7.48777193 4.1858725 12.1523341 10.08750923 15.359375 17.9921875 C17.54685602 26.01295125 17.75977955 36.24471478 14.1875 43.8828125 C9.67263278 51.31906439 3.85924743 57.09915164 -4.75 59.2578125 C-13.73893044 60.37353455 -21.35682383 59.75135312 -28.75 54.2578125 C-35.96820171 47.8917596 -40.19376573 41.00556659 -41.125 31.3828125 C-41.58093828 21.2605064 -39.91515091 14.03779238 -33.625 6.0078125 C-24.38511638 -3.80098115 -12.14279317 -5.56544687 0 0 Z " fill="#0B0B0B" transform="translate(565.75,519.7421875)"/>
<path d="M0 0 C7.32478813 4.28293259 11.56896479 10.20813564 14.50390625 18.09765625 C17.30710852 28.93584381 15.40550782 38.65461885 10.2890625 48.3984375 C6.43685813 54.52451251 0.42976885 58.18692036 -6.2109375 60.75 C-14.34247155 62.22846074 -20.4115198 61.46443286 -27.6484375 57.375 C-34.25002013 52.24799768 -39.08482979 45.68528541 -40.6484375 37.375 C-41.45249622 25.43275082 -40.82905718 16.20101822 -33.0234375 6.5625 C-23.75141102 -3.10371615 -12.29398753 -5.62010858 0 0 Z " fill="#0B0B0B" transform="translate(494.6484375,516.625)"/>
<path d="M0 0 C6.01890866 3.55662785 9.82470993 10.4741298 12 17 C13.16102893 35.005465 13.16102893 35.005465 8 43 C7.62617188 43.63164062 7.25234375 44.26328125 6.8671875 44.9140625 C2.71323919 51.37881649 -2.64749314 54.9238914 -10 57 C-17.95353343 58.04970492 -24.17421353 57.44831174 -30.84375 52.8359375 C-37.44155846 47.21823827 -41.40477484 40.40993539 -42.3515625 31.8046875 C-42.74991416 22.26521351 -41.06310972 14.28464165 -35.16796875 6.6171875 C-24.988523 -4.26498133 -13.28195955 -6.58343229 0 0 Z " fill="#0C0C0C" transform="translate(477,443)"/>
<path d="M0 0 C6.99495958 3.97466403 11.22460384 10.38189553 13.625 18 C14.04677529 20.78501261 14.10319979 23.49912676 14.0625 26.3125 C14.05347656 27.06015625 14.04445313 27.8078125 14.03515625 28.578125 C13.72857048 38.40590226 10.4777368 44.95782303 3.71484375 52.0859375 C-2.02231483 57.34053134 -8.16641619 59.46272342 -15.875 59.3359375 C-23.38037704 58.32740246 -29.36198774 53.98685161 -33.96875 48.15234375 C-39.28208489 40.01998952 -39.49416825 30.62174551 -37.90625 21.2265625 C-35.60554105 12.32501002 -29.96393964 5.14671069 -22.375 0 C-15.22823657 -3.44322543 -7.19589843 -3.23325542 0 0 Z " fill="#0B0B0B" transform="translate(531.375,394)"/>
<path d="M0 0 C11.95851579 1.66481298 23.85689082 9.59576434 33 17 C33.92296875 17.721875 34.8459375 18.44375 35.796875 19.1875 C60.25196068 38.64347977 75.03815461 64.15481124 78.74804688 95.35107422 C81.52003204 124.49452286 75.04251534 154.29920099 56.31640625 177.41015625 C49.40658812 185.47438768 41.27034909 191.72065888 32.63671875 197.83691406 C30.73171894 199.19064603 28.8604036 200.58571359 27 202 C26.34 201.67 25.68 201.34 25 201 C25.39678955 200.6095752 25.7935791 200.21915039 26.20239258 199.81689453 C44.20301382 181.90197817 56.76585759 161.03180143 62 136 C62.14953125 135.29037109 62.2990625 134.58074219 62.453125 133.84960938 C69.16304803 100.6759813 63.59325709 67.77813706 44.8125 39.4375 C39.78139272 32.41277368 34.07680111 26.13019645 28 20 C27.17628906 19.16339844 26.35257813 18.32679688 25.50390625 17.46484375 C19.9031517 12.10320187 13.88427073 8.36641686 7.1015625 4.7265625 C4.53652698 3.29867119 2.28252824 1.83276898 0 0 Z " fill="#F7F6F7" transform="translate(583,381)"/>
<path d="M0 0 C2.02553224 1.38571509 3.50786284 2.89886205 5.15576172 4.71826172 C9.39992743 9.12380256 14.15650516 12.48773285 19.20800781 15.89208984 C20.76404551 16.95574276 22.27695695 18.0819598 23.78076172 19.21826172 C23.78076172 19.87826172 23.78076172 20.53826172 23.78076172 21.21826172 C19.25129891 23.49559759 14.72037811 25.77000023 10.18823242 28.04199219 C8.65497618 28.81109459 7.12208304 29.58092139 5.58959961 30.3515625 C1.09640072 32.61071278 -3.40486901 34.85245105 -7.91571045 37.07617188 C-9.48321147 37.85333939 -11.04744065 38.63713338 -12.60870361 39.42675781 C-14.93152037 40.60111518 -17.26349567 41.75514613 -19.59814453 42.90576172 C-20.30551254 43.26927734 -21.01288055 43.63279297 -21.74168396 44.00732422 C-26.64636867 46.38881295 -26.64636867 46.38881295 -29.5793457 45.515625 C-30.12051025 45.08749512 -30.6616748 44.65936523 -31.21923828 44.21826172 C-32.13962891 43.50283203 -32.13962891 43.50283203 -33.07861328 42.77294922 C-40.21619196 36.43171196 -46.90196032 30.19417866 -52.21923828 22.21826172 C-48.75880551 19.31954468 -44.91857908 17.59845109 -40.81298828 15.81982422 C-39.7321698 15.34456802 -39.7321698 15.34456802 -38.6295166 14.85971069 C-36.3281873 13.84936267 -34.02373887 12.84635184 -31.71923828 11.84326172 C-30.20081112 11.17704613 -28.68257999 10.51038356 -27.16455078 9.84326172 C-24.21976309 8.55054306 -21.27044512 7.26914374 -18.31689453 5.99658203 C-15.72520635 4.87936571 -13.15728945 3.73215436 -10.59033203 2.55712891 C-9.52943359 2.08178711 -8.46853516 1.60644531 -7.37548828 1.11669922 C-6.46605469 0.6982373 -5.55662109 0.27977539 -4.61962891 -0.15136719 C-2.21923828 -0.78173828 -2.21923828 -0.78173828 0 0 Z " fill="#0B0B0B" transform="translate(700.21923828125,696.78173828125)"/>
<path d="M0 0 C5.45591421 5.0069481 10.87936013 11.209864 14 18 C14 18.99 14 19.98 14 21 C8.11224215 23.26592137 2.22211953 25.52560871 -3.66967773 27.78100586 C-5.67315599 28.54878165 -7.67609133 29.31797573 -9.6784668 30.08862305 C-12.55896245 31.19694573 -15.44138069 32.30013059 -18.32421875 33.40234375 C-19.21711105 33.74716293 -20.11000336 34.09198212 -21.029953 34.44725037 C-22.29069389 34.92763512 -22.29069389 34.92763512 -23.5769043 35.41772461 C-24.31192673 35.69974228 -25.04694916 35.98175995 -25.804245 36.27232361 C-28.181408 37.06011887 -30.53747855 37.55578528 -33 38 C-35.34049156 34.21270762 -37.67116642 30.41947015 -40 26.625 C-40.66773438 25.54476562 -41.33546875 24.46453125 -42.0234375 23.3515625 C-42.65507813 22.3203125 -43.28671875 21.2890625 -43.9375 20.2265625 C-44.52402344 19.27346191 -45.11054687 18.32036133 -45.71484375 17.33837891 C-47 15 -47 15 -47 13 C-40.95418457 10.97325558 -34.90313065 8.96280161 -28.84814453 6.96362305 C-26.78863059 6.28150034 -24.7303483 5.59564725 -22.67333984 4.90600586 C-19.71767408 3.91579367 -16.75784945 2.93904866 -13.796875 1.96484375 C-12.87694763 1.65344955 -11.95702026 1.34205536 -11.00921631 1.02122498 C-9.71833099 0.60067589 -9.71833099 0.60067589 -8.40136719 0.17163086 C-7.64635925 -0.07929825 -6.89135132 -0.33022736 -6.11346436 -0.58876038 C-3.68437842 -1.06141391 -2.30623974 -0.86539761 0 0 Z " fill="#0C0C0C" transform="translate(660,644)"/>
<path d="M0 0 C3.80744228 1.91600321 6.52007969 4.25437983 8.46875 8.16015625 C10.27304154 14.14955006 10.14886512 20.23609225 7.44140625 25.8515625 C2.9684908 30.68714678 -0.02567742 33.00495528 -6.6640625 33.4453125 C-10.75193843 33.27166821 -13.47393359 31.77522705 -16.3125 28.8828125 C-20.89030216 23.56160657 -21.21807725 20.20508852 -21.15234375 13.3359375 C-20.65263651 8.03348841 -18.12032325 5.47891595 -14.30859375 2.0390625 C-9.90381001 -1.01040317 -5.15203954 -1.78546673 0 0 Z " fill="#0C0C0C" transform="translate(524.87109375,473.6484375)"/>
<path d="M0 0 C-0.515625 0.556875 -1.03125 1.11375 -1.5625 1.6875 C-3.53765777 4.27675355 -3.53765777 4.27675355 -2 9 C-12.56 7.35 -23.12 5.7 -34 4 C-30.25893166 2.12946583 -28.11537313 1.58576159 -24.0625 1.11328125 C-22.34933594 0.9131543 -22.34933594 0.9131543 -20.6015625 0.70898438 C-19.41304687 0.57814453 -18.22453125 0.44730469 -17 0.3125 C-15.81148437 0.17005859 -14.62296875 0.02761719 -13.3984375 -0.11914062 C-3.73232505 -1.21557889 -3.73232505 -1.21557889 0 0 Z " fill="#EDEDED" transform="translate(556,619)"/>
<path d="M0 0 C2.28599664 0.01071066 4.57120493 0.00004947 6.85717773 -0.01269531 C15.72737728 -0.01987911 24.1203819 0.57871743 32.85522461 2.26074219 C32.85522461 2.59074219 32.85522461 2.92074219 32.85522461 3.26074219 C13.05522461 3.26074219 -6.74477539 3.26074219 -27.14477539 3.26074219 C-27.14477539 2.93074219 -27.14477539 2.60074219 -27.14477539 2.26074219 C-18.04632638 0.32203615 -9.25433254 -0.05145144 0 0 Z " fill="#181818" transform="translate(535.144775390625,238.7392578125)"/>
<path d="M0 0 C0.99 0 1.98 0 3 0 C3 10.89 3 21.78 3 33 C0 30 0 30 -0.34057617 26.90551758 C-0.32486572 25.66439209 -0.30915527 24.4232666 -0.29296875 23.14453125 C-0.28872391 22.48289474 -0.28447906 21.82125824 -0.28010559 21.13957214 C-0.26333693 19.0301309 -0.22569099 16.92165154 -0.1875 14.8125 C-0.17245068 13.38087319 -0.1587627 11.94923138 -0.14648438 10.51757812 C-0.1134403 7.01140712 -0.06167167 3.50579746 0 0 Z " fill="#141414" transform="translate(376,485)"/>
<path d="M0 0 C1.9996441 0.03772913 4.00054061 0.04649906 6 0 C5.01 0.495 5.01 0.495 4 1 C4 1.66 4 2.32 4 3 C1.1650857 4.41745715 -0.98049553 3.89494586 -4.125 3.625 C-5.28644531 3.52574219 -6.44789063 3.42648437 -7.64453125 3.32421875 C-11.44357529 2.95713999 -15.21893541 2.51896965 -19 2 C-13.2003629 -1.28154986 -6.39423364 -1.59855841 0 0 Z " fill="#EEEEEE" transform="translate(541,621)"/>
<path d="M0 0 C5.06040549 0.63888887 9.28011534 2.86279277 13.8125 5.0625 C14.60076172 5.43955078 15.38902344 5.81660156 16.20117188 6.20507812 C18.13652473 7.13170161 20.06859549 8.06517467 22 9 C21.67 10.32 21.34 11.64 21 13 C20.32195313 12.55269531 19.64390625 12.10539062 18.9453125 11.64453125 C12.80594139 7.65649102 6.62373926 4.11789896 0 1 C0 0.67 0 0.34 0 0 Z " fill="#E8E8E8" transform="translate(583,381)"/>
<path d="M0 0 C0 0.66 0 1.32 0 2 C-1.0725 2.12375 -2.145 2.2475 -3.25 2.375 C-6.82385483 2.78173316 -6.82385483 2.78173316 -9.125 4.0625 C-11.52430336 5.26215168 -13.34219062 5.06644523 -16 5 C-17.34332728 5.29044914 -18.68225804 5.60955794 -20 6 C-19.67 5.01 -19.34 4.02 -19 3 C-16.15932968 2.08766793 -13.46647739 1.37278638 -10.5625 0.75 C-9.77294922 0.564375 -8.98339844 0.37875 -8.16992188 0.1875 C-2.27739198 -1.13869599 -2.27739198 -1.13869599 0 0 Z " fill="#131213" transform="translate(554,609)"/>
<path d="M0 0 C1.48280196 0.78483659 2.9611498 1.57809334 4.4375 2.375 C5.67306641 3.03628906 5.67306641 3.03628906 6.93359375 3.7109375 C9 5 9 5 10 7 C9.34 7 8.68 7 8 7 C7.67 7.99 7.34 8.98 7 10 C4.36 8.02 1.72 6.04 -1 4 C-0.67 2.68 -0.34 1.36 0 0 Z " fill="#F1F1F1" transform="translate(605,391)"/>
<path d="M0 0 C1.17219543 0.78345715 2.33763668 1.57702836 3.5 2.375 C4.47453125 3.03628906 4.47453125 3.03628906 5.46875 3.7109375 C6.22671875 4.34902344 6.22671875 4.34902344 7 5 C7 5.66 7 6.32 7 7 C6.34 7 5.68 7 5 7 C4.67 7.99 4.34 8.98 4 10 C2.02 8.35 0.04 6.7 -2 5 C-1.34 3.35 -0.68 1.7 0 0 Z " fill="#131313" transform="translate(599,392)"/>
<path d="M0 0 C2.4375 0.5 2.4375 0.5 4 1 C4 1.66 4 2.32 4 3 C5.32 3 6.64 3 8 3 C8 3.66 8 4.32 8 5 C2.06 4.01 -3.88 3.02 -10 2 C-6.30594568 -0.46270288 -4.36722928 -0.22985417 0 0 Z " fill="#181818" transform="translate(597,244)"/>
<path d="M0 0 C3.07792716 1.74693163 5.56068493 3.44452707 8 6 C8.66 6.33 9.32 6.66 10 7 C10 7.66 10 8.32 10 9 C11.32 9.33 12.64 9.66 14 10 C13.34 10.66 12.68 11.32 12 12 C10.17826343 10.76350005 8.36785436 9.51029833 6.5625 8.25 C5.55316406 7.55390625 4.54382813 6.8578125 3.50390625 6.140625 C1.00288207 4.00246392 0.28144987 3.20419855 0 0 Z " fill="#131413" transform="translate(556,490)"/>
<path d="M0 0 C0.99 0.33 1.98 0.66 3 1 C3 5.29 3 9.58 3 14 C2.01 14 1.02 14 0 14 C0 9.38 0 4.76 0 0 Z " fill="#151515" transform="translate(435,464)"/>
<path d="M0 0 C0.66 0.33 1.32 0.66 2 1 C-2.30769231 5.92307692 -2.30769231 5.92307692 -5.8125 6.3125 C-6.8953125 6.1578125 -6.8953125 6.1578125 -8 6 C-8.33 6.66 -8.66 7.32 -9 8 C-9.99 8.33 -10.98 8.66 -12 9 C-12.66 8.34 -13.32 7.68 -14 7 C-11.71296692 5.80274117 -9.42115138 4.61702982 -7.125 3.4375 C-6.14853516 2.92413086 -6.14853516 2.92413086 -5.15234375 2.40039062 C-3.46470143 1.53917109 -1.73420407 0.76313297 0 0 Z " fill="#161616" transform="translate(580,596)"/>
<path d="M0 0 C-0.66 0 -1.32 0 -2 0 C-2 0.66 -2 1.32 -2 2 C-3.41377782 2.36552803 -4.83120576 2.71695495 -6.25 3.0625 C-7.03890625 3.25972656 -7.8278125 3.45695313 -8.640625 3.66015625 C-11.10394822 4.01497267 -12.65604132 3.76877544 -15 3 C-10.42919136 0.44034716 -5.14097791 -2.05639116 0 0 Z " fill="#151515" transform="translate(608,752)"/>
<path d="M0 0 C-5.23754283 2.20528119 -9.20971854 3.57902815 -15 3 C-15.66 2.34 -16.32 1.68 -17 1 C-14.91835982 0.63601378 -12.83459438 0.28416713 -10.75 -0.0625 C-9.00976562 -0.35833984 -9.00976562 -0.35833984 -7.234375 -0.66015625 C-4.37477376 -0.9606216 -2.66674071 -0.9439206 0 0 Z " fill="#191919" transform="translate(520,336)"/>
<path d="M0 0 C0.33 0 0.66 0 1 0 C1.33 4.29 1.66 8.58 2 13 C1.01 13.33 0.02 13.66 -1 14 C-1.027193 12.41676312 -1.04648306 10.83338938 -1.0625 9.25 C-1.07410156 8.36828125 -1.08570313 7.4865625 -1.09765625 6.578125 C-1.00826198 4.2181162 -0.66912821 2.25501476 0 0 Z " fill="#141414" transform="translate(276,513)"/>
<path d="M0 0 C0 0.66 0 1.32 0 2 C-4.76052962 3.97387813 -7.96488101 4.0070238 -13 3 C-13 2.34 -13 1.68 -13 1 C-12.06027344 1.01740234 -12.06027344 1.01740234 -11.1015625 1.03515625 C-9.87566406 1.04869141 -9.87566406 1.04869141 -8.625 1.0625 C-7.40683594 1.07990234 -7.40683594 1.07990234 -6.1640625 1.09765625 C-3.79725153 0.9908507 -2.35519775 0 0 0 Z " fill="#1A1A1A" transform="translate(527,503)"/>
<path d="M0 0 C4.95 0.33 9.9 0.66 15 1 C11.01219998 2.99390001 9.52852428 3.22686963 5.25 3.125 C4.26515625 3.10695313 3.2803125 3.08890625 2.265625 3.0703125 C1.14414062 3.03550781 1.14414062 3.03550781 0 3 C0 2.01 0 1.02 0 0 Z " fill="#1C1C1C" transform="translate(490,758)"/>
<path d="M0 0 C1.61725534 3.00950123 2.67582623 5.97103608 3.625 9.25 C3.88539063 10.14203125 4.14578125 11.0340625 4.4140625 11.953125 C4.60742188 12.62859375 4.80078125 13.3040625 5 14 C4.01 14 3.02 14 2 14 C1.46877637 12.23225581 0.95035927 10.46065917 0.4375 8.6875 C0.14746094 7.70136719 -0.14257812 6.71523438 -0.44140625 5.69921875 C-1 3 -1 3 0 0 Z " fill="#121213" transform="translate(386,556)"/>
<path d="M0 0 C2 2 2 2 2.046875 4.0234375 C1.94890625 4.79945313 1.8509375 5.57546875 1.75 6.375 C1.66234375 7.14585937 1.5746875 7.91671875 1.484375 8.7109375 C0.98335114 11.0786793 0.17347456 12.89351698 -1 15 C-2.4002792 9.53891111 -1.42705634 5.30723432 0 0 Z " fill="#121212" transform="translate(660,509)"/>
<path d="M0 0 C0.33 0 0.66 0 1 0 C1.33 4.95 1.66 9.9 2 15 C-1 12 -1 12 -1.25 8.625 C-1.0440294 5.63842628 -0.70362585 2.90245663 0 0 Z " fill="#151616" transform="translate(278,532)"/>
<path d="M0 0 C0.66 0 1.32 0 2 0 C3.5078125 1.64453125 3.5078125 1.64453125 5.125 3.8125 C5.66382813 4.52019531 6.20265625 5.22789062 6.7578125 5.95703125 C8 8 8 8 8 11 C5 10 5 10 4 8.125 C3.505 7.073125 3.505 7.073125 3 6 C2.46375 5.484375 1.9275 4.96875 1.375 4.4375 C0 3 0 3 0 0 Z " fill="#131313" transform="translate(635,726)"/>
<path d="M0 0 C3.74281699 2.38179263 6.97727468 4.74475735 10 8 C9.67 8.66 9.34 9.32 9 10 C7.49147143 8.90751403 5.99337169 7.80061501 4.5 6.6875 C3.24703125 5.76517578 3.24703125 5.76517578 1.96875 4.82421875 C1.3190625 4.22222656 0.669375 3.62023437 0 3 C0 2.01 0 1.02 0 0 Z " fill="#111110" transform="translate(430,628)"/>
<path d="M0 0 C-2.70188004 1.80125336 -4.93057703 3.00243753 -8 4 C-8.99 3.67 -9.98 3.34 -11 3 C-10 1 -10 1 -7.1875 -0.1875 C-4.14038924 -0.96421451 -2.86250637 -1.10096399 0 0 Z " fill="#121212" transform="translate(584,610)"/>
<path d="M0 0 C2.97 0 5.94 0 9 0 C9 0.99 9 1.98 9 3 C6.03 3 3.06 3 0 3 C0 2.01 0 1.02 0 0 Z " fill="#141313" transform="translate(513,450)"/>
<path d="M0 0 C2.1640625 -0.29296875 2.1640625 -0.29296875 4.625 -0.1875 C5.44226563 -0.16042969 6.25953125 -0.13335938 7.1015625 -0.10546875 C8.04128906 -0.05326172 8.04128906 -0.05326172 9 0 C7.3655205 1.96446905 6.53570606 2.92317791 3.95703125 3.29296875 C1.97135417 3.1953125 -0.01432292 3.09765625 -2 3 C-1.34 2.01 -0.68 1.02 0 0 Z " fill="#151616" transform="translate(554,760)"/>
<path d="M0 0 C0.66 0 1.32 0 2 0 C3.34331654 1.99330842 4.67594012 3.99384866 6 6 C6.99 6.66 7.98 7.32 9 8 C8.67 8.66 8.34 9.32 8 10 C4.30209954 8.76736651 4.0645154 7.79947549 2.3125 4.4375 C1.87550781 3.61121094 1.43851562 2.78492188 0.98828125 1.93359375 C0.66214844 1.29550781 0.33601563 0.65742187 0 0 Z " fill="#131313" transform="translate(402,597)"/>
<path d="M0 0 C0.66 0.33 1.32 0.66 2 1 C1.19185349 2.33597652 0.37836819 3.668725 -0.4375 5 C-0.88996094 5.7425 -1.34242188 6.485 -1.80859375 7.25 C-2.20175781 7.8275 -2.59492187 8.405 -3 9 C-3.33 9 -3.66 9 -4 9 C-4 7.35 -4 5.7 -4 4 C-3.01 3.67 -2.02 3.34 -1 3 C-0.67 2.01 -0.34 1.02 0 0 Z " fill="#161615" transform="translate(541,434)"/>
<path d="M0 0 C-0.33 0.66 -0.66 1.32 -1 2 C-3.28515625 2.4140625 -3.28515625 2.4140625 -6.0625 2.625 C-6.98160156 2.69976563 -7.90070312 2.77453125 -8.84765625 2.8515625 C-9.55792969 2.90054688 -10.26820313 2.94953125 -11 3 C-10 1 -10 1 -6.625 -0.1875 C-3 -1 -3 -1 0 0 Z " fill="#121212" transform="translate(571,664)"/>
<path d="M0 0 C2.64 0.66 5.28 1.32 8 2 C8 2.99 8 3.98 8 5 C5 4 2 3 -1 2 C-0.67 1.34 -0.34 0.68 0 0 Z " fill="#151515" transform="translate(482,607)"/>
<path d="M0 0 C2.64 0.66 5.28 1.32 8 2 C8 2.99 8 3.98 8 5 C5.36 4.34 2.72 3.68 0 3 C0 2.01 0 1.02 0 0 Z " fill="#121212" transform="translate(585,341)"/>
<path d="M0 0 C2.37948772 0.17625835 3.70225849 0.69719773 5.37890625 2.40234375 C6.62115486 3.90649092 7.81376056 5.45129851 9 7 C6.50638429 5.79618552 4.31856917 4.54571278 2 3 C1.34 3 0.68 3 0 3 C0 2.01 0 1.02 0 0 Z " fill="#131313" transform="translate(656,643)"/>
<path d="M0 0 C-0.33 0.99 -0.66 1.98 -1 3 C-4.3 2.67 -7.6 2.34 -11 2 C-6.78370866 -0.10814567 -4.60209225 -0.17700355 0 0 Z " fill="#CCCCCC" transform="translate(533,621)"/>
<path d="M0 0 C2.9375 0.75 2.9375 0.75 6 2 C6.875 4.125 6.875 4.125 7 6 C4.69 5.01 2.38 4.02 0 3 C0 2.01 0 1.02 0 0 Z " fill="#151515" transform="translate(642,611)"/>
<path d="M0 0 C0.99 0.33 1.98 0.66 3 1 C3.33 3.31 3.66 5.62 4 8 C3.01 8 2.02 8 1 8 C0.67 5.36 0.34 2.72 0 0 Z " fill="#141413" transform="translate(280,558)"/>
<path d="M0 0 C0.66 0 1.32 0 2 0 C2 2.31 2 4.62 2 7 C1.01 7 0.02 7 -1 7 C-0.67 4.69 -0.34 2.38 0 0 Z " fill="#141414" transform="translate(635,498)"/>
<path d="M0 0 C0.99 0 1.98 0 3 0 C3.33 2.31 3.66 4.62 4 7 C3.01 6.67 2.02 6.34 1 6 C0.67 4.02 0.34 2.04 0 0 Z " fill="#131313" transform="translate(485,457)"/>
<path d="M0 0 C0.66 0.33 1.32 0.66 2 1 C0.515 4.465 0.515 4.465 -1 8 C-1.66 7.67 -2.32 7.34 -3 7 C-2.25 2.25 -2.25 2.25 0 0 Z " fill="#ECECEC" transform="translate(388,431)"/>
<path d="M0 0 C1 3 1 3 0 6 C-0.66 6 -1.32 6 -2 6 C-2.66 7.32 -3.32 8.64 -4 10 C-3.67558396 8.33157466 -3.34060811 6.66519519 -3 5 C-2.855625 4.2575 -2.71125 3.515 -2.5625 2.75 C-2.376875 2.1725 -2.19125 1.595 -2 1 C-1.34 0.67 -0.68 0.34 0 0 Z " fill="#111111" transform="translate(288,418)"/>
<path d="M0 0 C3.95820859 0.56545837 6.6659053 1.80902348 10 4 C9.01 4.495 9.01 4.495 8 5 C6.31050386 4.39351421 4.64363134 3.72159424 3 3 C2.01 2.67 1.02 2.34 0 2 C0 1.34 0 0.68 0 0 Z " fill="#020102" transform="translate(582,382)"/>
<path d="M0 0 C2.31 0 4.62 0 7 0 C7 0.99 7 1.98 7 3 C4.625 3.1875 4.625 3.1875 2 3 C1.34 2.01 0.68 1.02 0 0 Z " fill="#141414" transform="translate(516,473)"/>
<path d="M0 0 C1 3 1 3 0.0625 5.1875 C-0.4634375 6.0846875 -0.4634375 6.0846875 -1 7 C-1.99 7 -2.98 7 -4 7 C-3.67 5.68 -3.34 4.36 -3 3 C-2.34 3 -1.68 3 -1 3 C-0.67 2.01 -0.34 1.02 0 0 Z " fill="#161515" transform="translate(301,384)"/>
<path d="M0 0 C0.66 0.33 1.32 0.66 2 1 C0.35 2.65 -1.3 4.3 -3 6 C-3 3 -3 3 -1.5 1.3125 C-0.7575 0.6628125 -0.7575 0.6628125 0 0 Z " fill="#181819" transform="translate(702,358)"/>
</svg>
